<svg width="32" height="28" viewBox="0 0 32 28" fill="none" xmlns="http://www.w3.org/2000/svg">
<g clip-path="url(#clip0_8_177)" filter="url(#filter0_d_8_177)">
<path d="M16.0765 2.99854H16.21C17.443 3.00304 23.6905 3.04804 25.375 3.50104C25.8842 3.63929 26.3483 3.90877 26.7207 4.28255C27.0932 4.65633 27.361 5.12131 27.4975 5.63104C27.649 6.20104 27.7555 6.95554 27.8275 7.73404L27.8425 7.89004L27.8755 8.28004L27.8875 8.43604C27.985 9.80704 27.997 11.091 27.9985 11.3715V11.484C27.997 11.775 27.9835 13.146 27.8755 14.574L27.8635 14.7315L27.85 14.8875C27.775 15.7455 27.664 16.5975 27.4975 17.2245C27.3615 17.7345 27.0938 18.1997 26.7212 18.5735C26.3487 18.9474 25.8844 19.2167 25.375 19.3545C23.635 19.8225 17.0215 19.8555 16.105 19.857H15.892C15.4285 19.857 13.5115 19.848 11.5015 19.779L11.2465 19.77L11.116 19.764L10.8595 19.7535L10.603 19.743C8.938 19.6695 7.3525 19.551 6.622 19.353C6.11273 19.2153 5.6486 18.9462 5.27609 18.5726C4.90358 18.1991 4.63577 17.7342 4.4995 17.2245C4.333 16.599 4.222 15.7455 4.147 14.8875L4.135 14.73L4.123 14.574C4.04897 13.5576 4.00795 12.5391 4 11.52L4 11.3355C4.003 11.013 4.015 9.89854 4.096 8.66854L4.1065 8.51404L4.111 8.43604L4.123 8.28004L4.156 7.89004L4.171 7.73404C4.243 6.95554 4.3495 6.19954 4.501 5.63104C4.63704 5.12111 4.90474 4.6559 5.27727 4.28206C5.6498 3.90822 6.11405 3.63887 6.6235 3.50104C7.354 3.30604 8.9395 3.18604 10.6045 3.11104L10.8595 3.10054L11.1175 3.09154L11.2465 3.08704L11.503 3.07654C12.9306 3.0306 14.3587 3.00509 15.787 3.00004H16.0765V2.99854ZM13.6 7.81354V15.0405L19.8355 11.4285L13.6 7.81354Z" fill="#F6F6F6"/>
</g>
<defs>
<filter id="filter0_d_8_177" x="0" y="0" width="32" height="32" filterUnits="userSpaceOnUse" color-interpolation-filters="sRGB">
<feFlood flood-opacity="0" result="BackgroundImageFix"/>
<feColorMatrix in="SourceAlpha" type="matrix" values="0 0 0 0 0 0 0 0 0 0 0 0 0 0 0 0 0 0 127 0" result="hardAlpha"/>
<feOffset dy="4"/>
<feGaussianBlur stdDeviation="2"/>
<feComposite in2="hardAlpha" operator="out"/>
<feColorMatrix type="matrix" values="0 0 0 0 0 0 0 0 0 0 0 0 0 0 0 0 0 0 0.25 0"/>
<feBlend mode="normal" in2="BackgroundImageFix" result="effect1_dropShadow_8_177"/>
<feBlend mode="normal" in="SourceGraphic" in2="effect1_dropShadow_8_177" result="shape"/>
</filter>
<clipPath id="clip0_8_177">
<rect width="24" height="24" fill="white" transform="translate(4)"/>
</clipPath>
</defs>
</svg>
